PathFileType	4	(X/Y/Z)	Patient4_TMGait_0pt4_01_left_42.trc.trc
DataRate	CameraRate	NumFrames	NumMarkers	Units	OrigDataRate	OrigDataStartFrame	OrigNumFrames
78.212290502793	78.212290502793	5	33	mm	78.212290502793	36	       141
Frame#	Time	Sacral			L.Shoulder			Chest			R.Shoulder			Neck			R.ASIS			L.ASIS			R.Thigh.Superior			R.Thigh.Lateral			R.Thigh.Inferior			R.Patella			L.Thigh.Superior			L.Thigh.Lateral			L.Thigh.Inferior			L.Patella			L.Shank.Superior			L.Shank.Lateral			L.Shank.Inferior			R.Shank.Superior			R.Shank.Lateral			R.Shank.Inferior			R.Heel			R.Midfoot.Superior			R.Midfoot.Lateral			R.Toe			L.Heel			L.Midfoot.Lateral			L.Midfoot.Superior			L.Toe			L.Elbow			L.Wrist			R.Elbow			R.Wrist			
		X1	Y1	Z1	X2	Y2	Z2	X3	Y3	Z3	X4	Y4	Z4	X5	Y5	Z5	X6	Y6	Z6	X7	Y7	Z7	X8	Y8	Z8	X9	Y9	Z9	X10	Y10	Z10	X11	Y11	Z11	X12	Y12	Z12	X13	Y13	Z13	X14	Y14	Z14	X15	Y15	Z15	X16	Y16	Z16	X17	Y17	Z17	X18	Y18	Z18	X19	Y19	Z19	X20	Y20	Z20	X21	Y21	Z21	X22	Y22	Z22	X23	Y23	Z23	X24	Y24	Z24	X25	Y25	Z25	X26	Y26	Z26	X27	Y27	Z27	X28	Y28	Z28	X29	Y29	Z29	X30	Y30	Z30	X31	Y31	Z31	X32	Y32	Z32	X33	Y33	Z33	

36	53.287500000000	833.188292409771	998.584896427098	482.557248445069	983.468491237272	1426.519993642589	281.986937175253	1103.665520068458	1363.720075091630	433.041975777448	1035.712642264332	1438.028049538491	613.634423814908	979.053909937333	1489.204283399619	438.545516402171	1069.064062711461	935.782959281752	580.712864984451	1034.693311512627	958.083250137835	307.865597241763	1083.147378572980	723.459501538063	554.114345366010	992.868371532797	622.201137832322	622.566147814223	1058.664577346356	558.485730294161	542.560761998128	1046.071880667292	459.875816111104	557.388889736019	1107.183769031009	761.132146905503	331.290678355868	1032.977189037395	635.552571402796	271.090493101166	1133.011800505338	568.727172996082	325.189402967326	1142.970153840808	497.364132554369	331.255064984484	1116.502744670659	422.165534225904	324.031357782081	1025.970030704947	307.267737599231	273.789765809828	1084.197448974040	195.539318559085	339.349891943875	985.819478583719	384.610227979723	567.417878538050	884.155665217612	314.024965810422	634.691524362110	891.488282419737	207.331677529941	578.464849213298	715.162226845210	76.681812198104	556.443564203561	891.047171999091	100.992703981197	594.523587305152	794.928224377232	55.049327930460	632.088979526268	999.691227806917	37.259402773683	626.327005640654	961.928462185233	38.532204423192	383.913484500815	1030.961666653307	35.438639406553	298.996878371775	1114.564197243793	97.690727032535	321.800716760649	1241.678007850727	48.565470082476	285.809474370223	905.874329393847	1078.725218950554	181.123038472669	944.001287867925	823.039973456878	149.471655073996	1086.045818674628	1100.950935178640	746.528737347024	1325.182202702952	1029.342483534870	695.037475080703	
37	53.300285714286	833.159506761970	999.235223310056	479.385300800774	984.487991151394	1426.930286955032	278.885002309138	1103.998564144243	1364.355037059583	430.543854086919	1035.332678255329	1439.094301531866	610.666220921636	979.408769514133	1489.792596366043	435.304829730539	1068.800868070495	936.399240698172	578.285661282782	1035.434641031980	958.686569991846	305.429856667705	1086.654844228023	724.871361356025	551.688061155635	998.584219375796	622.200482546974	620.082554470717	1066.060451518616	559.347735785887	540.158857808410	1054.712289424588	459.087323677560	556.217494944774	1106.822942697342	760.553729517852	328.230367381946	1030.905479560104	635.389082653904	269.376287951895	1130.444254798067	567.899386801648	323.317357886157	1139.794837021092	496.778587611120	330.006352128404	1113.082011357685	421.657166780200	322.964455654186	1022.135617178877	307.018509469150	272.957580223882	1079.644925555277	195.226002606698	338.942903339357	992.194205575511	384.808452600236	566.227982503801	888.160667791816	317.602790618744	633.345404333794	893.058813847659	210.272161760431	578.078753287433	712.983114600107	85.412633341615	556.277550946107	889.431135441847	102.714079610297	594.573064478117	791.666943207175	60.551438763296	631.870429050986	994.909049041506	36.591086057042	626.382016238307	956.750501099395	38.530606955608	383.813700863555	1025.762013507495	35.347865568135	298.881833068862	1109.418734707178	97.543478022763	321.699136027148	1236.555327973071	48.306322416387	285.696299145554	911.626347433724	1078.253791644424	176.523897620031	957.006019185610	823.579524446597	144.887509944749	1081.639349617853	1101.769928483160	744.406814227818	1319.155077793755	1023.925341848132	693.821921551527	
38	53.313071428571	832.978786919296	999.889881983409	476.265347322072	985.656540949310	1427.354429857736	275.820173187023	1104.302080148832	1364.964917674487	428.196559328069	1034.758266288489	1440.095488684395	607.794627350562	979.721722095948	1490.363118648445	432.119871664755	1068.392779879427	937.030250317114	576.016508724562	1036.138683740092	959.238258806445	303.169651817953	1090.504760805309	726.532227589901	549.310340609927	1004.954297211467	622.304754590570	617.702741663931	1074.107611492984	560.463490975314	537.788752004934	1064.010460286994	458.619534044802	554.999409580623	1106.186431222232	759.870255644717	325.622590988796	1028.838699763852	635.301656042413	267.727702001884	1127.696253063484	567.090954781280	321.785889316914	1136.398647954238	496.157610400998	328.909743206998	1109.444553702963	421.150095661267	321.965416628136	1018.128183843464	306.745370955004	272.183468408718	1074.978974961907	194.894909515104	338.544979751456	999.307710733916	385.252098404196	565.029677953944	892.940750942293	321.602866184403	631.970807218391	895.283647188942	213.705936744190	577.657585419628	711.473383096732	95.258939739750	555.954372184214	888.270305552149	104.899057240980	594.555112440148	788.791035812826	66.980279411993	631.553399597962	990.136445481948	35.937861392854	626.428862080784	951.526324255343	38.521599022703	383.729244963998	1020.525187624345	35.253967725849	298.789001621071	1104.252145273235	97.361416362461	321.629452036699	1231.408655812444	47.966675821934	285.629131400336	917.515901454415	1077.889907412082	171.968209390598	970.507910013451	824.493379759286	140.467140335005	1076.853351367749	1102.517682117592	742.338661178345	1312.423810041145	1017.792199286768	692.789315137764	
39	53.325857142857	832.657446065756	1000.502415420728	473.235635410378	986.971051177906	1427.753459329294	272.821584862583	1104.581533735669	1365.509879161931	426.020951349742	1034.008845567860	1441.000864935645	605.043084120871	979.996870243289	1490.893087004857	429.003755582379	1067.847377472214	937.651478329726	573.918279464938	1036.782044098196	959.732017444299	301.086834344168	1094.624898753729	728.442969787163	546.991284232265	1011.883165264982	622.545237216518	615.455115024105	1082.692604888438	561.848711170363	535.500994647423	1073.843516669325	458.506934450293	553.748614603580	1105.306717271019	759.135774984284	323.464267345780	1026.820405699245	635.298143253370	266.116989430569	1124.824047837445	566.319515294114	320.531996848772	1132.845814343739	495.518222086504	327.917300416845	1105.660082088024	420.650573514656	321.010102784410	1014.021997398369	306.457536453145	271.427051527180	1070.248229753275	194.555044653978	338.139782196020	1007.051936749786	385.963745060147	563.815195500473	898.428865461391	325.996465036130	630.561443160866	898.116492670666	217.621125038514	577.172155441209	710.689107819471	106.113703303598	555.446438785001	887.570216022959	107.615062837424	594.442493293159	786.370158394071	74.311170202638	631.113567645091	985.450695834730	35.296716315661	626.446235941574	946.290341679741	38.512079930428	383.651080614102	1015.282473279696	35.166199608980	298.705784340382	1099.090224860629	97.162851791108	321.573383973243	1226.264202167792	47.574560313307	285.587800251124	923.557556294296	1077.603903205155	167.456387946060	984.461455752537	825.773752545999	136.223922035550	1071.692164824301	1103.143105524820	740.310347198776	1304.955930146348	1010.968810119581	691.940973911810	
40	53.338642857143	832.217352363211	1001.032444483005	470.326436379774	988.408269552789	1428.092769616735	269.923878497439	1104.836305963092	1365.962897881434	424.035091133371	1033.105353884319	1441.789439744853	602.436950571175	980.238031637081	1491.368031707173	425.972545637759	1067.180525156980	938.244436815253	571.999315313852	1037.348521569768	960.168880645161	299.177293416963	1098.919989887231	730.598582689030	544.754135368346	1019.222745783889	622.960567320935	613.368036759078	1091.661895601736	563.521902365158	533.354876841338	1084.061953656094	458.780911073498	552.494378632062	1104.233455502088	758.395351633314	321.694423533071	1024.855984014596	635.368184116483	264.526666967176	1121.876246342305	565.590448375992	319.464848320028	1129.199333721487	494.875264939008	326.975258501932	1101.793603747967	420.161990360253	320.074197196774	1009.875590067546	306.163980274067	270.666680871323	1065.493924388065	194.213139718054	337.716474042190	1015.292546160171	386.966678258570	562.587913410072	904.529545089475	330.737537563156	629.120354521621	901.498891400402	221.984965979808	576.602287529441	710.675473399789	117.796084688138	554.744039341651	887.346638355372	110.899028964332	594.213853501036	784.487819075332	82.451465828551	630.533406263278	980.969525523580	34.680580633791	626.399469567270	941.067870517685	38.507144169540	383.573384473845	1010.055752829704	35.090581915453	298.623350715248	1093.949766834684	96.962652550433	321.516381499430	1221.138939047887	47.155065318724	285.554486977275	929.773984923766	1077.367285811470	162.989997110230	998.822188116136	827.407239574955	132.170087198623	1066.166749701096	1103.605873251231	738.306438069934	1296.719697060480	1003.484441954984	691.277197714567	
